<svg width="27" height="28" viewBox="0 0 27 28" fill="none" xmlns="http://www.w3.org/2000/svg">
<rect x="6.7627" y="16.2251" width="4.36262" height="2.2838" transform="rotate(-90 6.7627 16.2251)" fill="#D9D9D9"/>
<rect x="17.8018" y="16.2251" width="4.36262" height="2.2838" transform="rotate(-90 17.8018 16.2251)" fill="#D9D9D9"/>
<rect x="15.6074" y="9.78467" width="4.36263" height="2.28379" transform="rotate(180 15.6074 9.78467)" fill="#D9D9D9"/>
<rect x="15.6074" y="20.646" width="4.36263" height="2.28379" transform="rotate(180 15.6074 20.646)" fill="#D9D9D9"/>
<rect x="11.2471" y="18.5391" width="2.19596" height="2.28379" transform="rotate(180 11.2471 18.5391)" fill="#D9D9D9"/>
<rect x="11.2471" y="11.8633" width="2.19596" height="2.28379" transform="rotate(180 11.2471 11.8633)" fill="#D9D9D9"/>
<rect x="17.8643" y="11.9795" width="2.19596" height="2.28379" transform="rotate(180 17.8643 11.9795)" fill="#D9D9D9"/>
<rect x="17.8018" y="18.5391" width="2.19596" height="2.28379" transform="rotate(180 17.8018 18.5391)" fill="#D9D9D9"/>
<rect x="0.294922" y="5.27539" width="2.16668" height="17.509" fill="#D9D9D9"/>
<rect x="24.4805" y="5.27539" width="2.16668" height="17.509" fill="#D9D9D9"/>
<rect x="4.68945" y="2.96094" width="2.16667" height="17.5091" transform="rotate(-90 4.68945 2.96094)" fill="#D9D9D9"/>
<rect x="4.68945" y="27.2061" width="2.16667" height="17.5091" transform="rotate(-90 4.68945 27.2061)" fill="#D9D9D9"/>
<rect x="2.3457" y="25.0391" width="2.16667" height="2.2838" transform="rotate(-90 2.3457 25.0391)" fill="#D9D9D9"/>
<rect x="24.4531" y="5.24609" width="2.19596" height="2.28379" transform="rotate(180 24.4531 5.24609)" fill="#D9D9D9"/>
<rect x="4.68945" y="5.27539" width="2.19596" height="2.28379" transform="rotate(180 4.68945 5.27539)" fill="#D9D9D9"/>
<rect x="22.1953" y="25.0391" width="2.16667" height="2.2838" transform="rotate(-90 22.1953 25.0391)" fill="#D9D9D9"/>
<rect x="22.1953" y="9.75439" width="4.30408" height="4.47973" transform="rotate(180 22.1953 9.75439)" fill="#D9D9D9"/>
</svg>
