<svg width="27" height="28" viewBox="0 0 27 28" fill="none" xmlns="http://www.w3.org/2000/svg">
<path d="M5.91878 0.824219H11.1891V3.45939H8.55395V6.09456H5.91878V0.824219ZM5.91878 14.0001H3.28361V6.09456H5.91878V14.0001ZM8.55395 16.6353H5.91878V14.0001H8.55395V16.6353ZM11.1891 19.2704V16.6353H8.55395V19.2704H3.28361V16.6353H0.648438V19.2704H3.28361V21.9056H8.55395V27.1759H11.1891V21.9056H13.8243V19.2704H11.1891ZM11.1891 19.2704V21.9056H8.55395V19.2704H11.1891ZM19.0946 3.45939V6.09456H11.1891V3.45939H19.0946ZM24.365 6.09456H21.7298V3.45939H19.0946V0.824219H24.365V6.09456ZM24.365 14.0001V6.09456H27.0002V14.0001H24.365ZM21.7298 16.6353V14.0001H24.365V16.6353H21.7298ZM19.0946 19.2704V16.6353H21.7298V19.2704H19.0946ZM19.0946 21.9056H16.4595V19.2704H19.0946V21.9056ZM19.0946 21.9056H21.7298V27.1759H19.0946V21.9056Z" fill="#D9D9D9"/>
</svg>
