<svg width="28" height="28" viewBox="0 0 28 28" fill="none" xmlns="http://www.w3.org/2000/svg">
<path d="M9.263 19.2055V11.3515H10.98V19.2055H9.263ZM9.263 9.99146V8.27446H10.98V9.99146H9.263ZM12.6995 19.2055V11.3515H19.0405V12.8985H20.6045V19.2055H18.8705V13.0515H14.4165V19.2055H12.6995Z" fill="#D9D9D9"/>
<rect x="0.942383" y="4.48096" width="2.1667" height="17.5093" fill="#D9D9D9"/>
<rect x="25.1289" y="4.48096" width="2.1667" height="17.5093" fill="#D9D9D9"/>
<rect x="5.33594" y="2.16699" width="2.1667" height="17.5093" transform="rotate(-90 5.33594 2.16699)" fill="#D9D9D9"/>
<rect x="5.33594" y="26.4111" width="2.1667" height="17.5093" transform="rotate(-90 5.33594 26.4111)" fill="#D9D9D9"/>
<rect x="2.99316" y="24.2446" width="2.1667" height="2.28382" transform="rotate(-90 2.99316 24.2446)" fill="#D9D9D9"/>
<rect x="25.1006" y="4.45117" width="2.19598" height="2.28382" transform="rotate(180 25.1006 4.45117)" fill="#D9D9D9"/>
<rect x="5.33594" y="4.48096" width="2.19598" height="2.28382" transform="rotate(180 5.33594 4.48096)" fill="#D9D9D9"/>
<rect x="22.8428" y="24.2446" width="2.1667" height="2.28382" transform="rotate(-90 22.8428 24.2446)" fill="#D9D9D9"/>
</svg>
