<svg width="138" height="168" viewBox="0 0 138 168" fill="none" xmlns="http://www.w3.org/2000/svg">
<path d="M116.455 152.839H30.5429C30.1819 149.556 43.3418 79.7444 58.7999 57.3012C60.5547 54.7543 75.5776 52.9013 81.0926 59.2365C110.306 92.7859 117.161 152.035 116.455 152.839Z" fill="black"/>
<path d="M56.7611 63.0948C54.3224 69.412 45.1234 91.5604 40.1238 107.456C36.7686 118.123 35.4911 127.075 34.7571 129.427C34.7571 129.427 60.1242 121.279 65.8358 121.265C74.6317 121.243 88.7422 139.615 85.2807 141.915C79.8399 145.535 53.9033 157.845 33.1909 161.709C21.9322 163.811 0.718445 149.5 2.39501 138.123C4.74742 122.156 33.602 80.067 44.5799 68.1325C50.2794 61.9377 59.7331 55.3959 56.7611 63.0948Z" fill="#FF9581"/>
<path d="M0.848694 141.498C1.38014 152.999 15.7673 162.682 24.112 163.193C38.5032 164.066 81.6748 151.493 81.6748 151.493L64.8931 119.163C64.8931 119.163 35.5171 129.134 34.7711 129.415V129.403C35.0298 128.547 42.2695 101.343 45.5043 92.3282C45.6768 91.8308 45.8773 91.3215 46.0658 90.786C46.9964 88.2892 48.2738 84.9922 49.6857 81.4305L49.6997 81.4044C50.4819 79.4331 51.3081 77.3715 52.1203 75.3379V75.3259C55.668 66.5119 59.1254 58.123 59.1254 58.123C54.1799 58.9353 49.2966 61.5343 41.2788 69.9492C33.277 78.3541 -0.0297012 122.524 0.848694 141.498Z" fill="black"/>
<path d="M70.4858 144.499C69.2885 142.21 68.0712 139.932 66.87 137.646C65.6907 135.408 64.4975 133.178 63.2942 130.952C62.0508 128.649 60.7453 126.351 59.7405 123.933C59.7225 123.886 59.7847 123.848 59.8147 123.888C61.3249 125.88 62.5682 128.076 63.8096 130.24C65.0951 132.482 66.3485 134.744 67.5899 137.012C68.8072 139.234 69.9784 141.478 71.1336 143.73C72.3208 146.049 73.5201 148.451 74.3784 150.914C74.4125 151.012 74.2761 151.109 74.2119 151.012C72.8242 148.953 71.6369 146.697 70.4858 144.499Z" fill="#2B454E"/>
<path d="M25.7865 134.186L34.7569 129.429L34.7709 129.417V129.405C35.0296 128.549 42.2694 101.345 45.5042 92.3303C45.6766 91.8329 45.8772 91.3236 46.0657 90.7881C46.9962 88.2913 48.2737 84.9943 49.6855 81.4326L25.7865 134.186Z" fill="#1C1C1C"/>
<path d="M18.36 138.133C20.8508 136.272 23.5361 134.607 26.2414 133.077C27.5931 132.311 28.9729 131.607 30.3907 130.974C31.8989 130.3 33.4932 129.812 34.9913 129.135C35.1056 129.082 35.1898 129.259 35.0755 129.311C33.6757 129.945 32.3461 130.827 30.9944 131.563C29.5886 132.329 28.1767 133.083 26.7528 133.815C23.9572 135.253 21.2117 136.779 18.4322 138.247C18.366 138.283 18.2978 138.179 18.36 138.133Z" fill="#1C1C1C"/>
<path d="M24.8923 131.168C27.1445 131.198 40.7375 127.568 42.7169 129.433C54.7817 140.806 58.5961 138.516 61.1651 139.998C81.0452 151.435 107.594 164.872 117.069 164.956C131.44 165.072 137.164 153.011 134.772 141.616C130.049 119.091 99.67 75.1693 85.9245 63.4975C78.6367 57.3187 79.2123 66.6381 82.2265 76.7697C83.9953 82.7099 87.0877 91.5419 90.2423 100.21C93.0359 107.931 100.44 127.66 100.568 128.124V128.136C100.58 128.162 100.592 128.176 100.59 128.19C100.6 128.242 100.548 128.252 100.432 128.22C99.8003 128.103 82.8 120.092 65.7035 115.69C59.6791 114.139 47.1329 111.929 42.6347 113.937C39.9594 115.13 39.9152 116.727 39.9152 116.727C39.9152 116.727 37.7714 116.532 35.5092 118.393C34.0092 119.628 33.5439 121.375 33.5439 121.375C33.5439 121.375 31.1975 121.704 29.9762 123.064C28.5202 124.686 28.3919 126.403 28.3919 126.403C25.2232 127.249 24.8923 131.168 24.8923 131.168Z" fill="white"/>
<path d="M44.9719 116.252C46.7849 116.278 48.5537 116.541 50.3345 116.853C50.4549 116.875 50.4509 117.062 50.3225 117.048C48.5737 116.855 46.8029 116.815 45.0461 116.757C43.2994 116.699 41.5245 116.661 39.7778 116.697C39.7678 116.697 39.7658 116.679 39.7758 116.677C41.5185 116.39 43.1991 116.226 44.9719 116.252Z" fill="#1A2E35"/>
<path d="M33.5926 121.272C36.7051 120.418 39.1858 119.944 43.0945 120.434C43.2208 120.45 43.2108 120.636 43.0864 120.628C39.3723 120.398 36.9497 120.775 33.5986 121.338C33.5605 121.346 33.5585 121.282 33.5926 121.272Z" fill="#1A2E35"/>
<path d="M28.4245 126.3C31.545 125.016 33.9475 124.615 37.411 124.615C37.5333 124.615 37.5734 124.796 37.4471 124.808C34.124 125.125 31.6934 125.602 28.4706 126.44C28.3904 126.46 28.3483 126.332 28.4245 126.3Z" fill="#1A2E35"/>
<path d="M66.5329 115.889C68.025 116.084 69.517 116.523 70.977 116.882C72.5332 117.265 74.0855 117.688 75.6096 118.192C78.6619 119.198 81.624 120.406 84.546 121.737C84.6583 121.789 84.5981 121.962 84.4778 121.92C81.5017 120.877 78.4955 119.9 75.4873 118.954C74.0072 118.488 72.5372 117.993 71.0632 117.512C69.5511 117.016 67.9768 116.641 66.4908 116.078C66.3905 116.04 66.4206 115.873 66.5329 115.889Z" fill="#1A2E35"/>
<path d="M78.4251 119.111C75.2785 118.046 73.8566 118.04 73.8566 118.04L55.9699 148.245C55.9699 148.245 105.236 165.981 115.35 167.018C125.465 168.055 136.973 160.089 137.167 147.39C137.44 129.542 108.335 86.6789 93.6926 70.1038C86.9824 62.5071 79.1591 56.99 77.1636 58.2354C74.8072 59.7054 79.0869 69.2574 81.343 76.3829C85.5063 89.5367 100.429 128.22 100.429 128.22C100.429 128.22 82.1733 120.381 78.4251 119.111Z" fill="black"/>
<path d="M74.0167 118.016C76.7922 118.179 88.7909 122.358 94.6749 124.883C100.539 127.4 106.18 130.386 111.473 133.96C114.467 135.981 117.309 138.181 120.116 140.453C120.212 140.531 120.108 140.688 120.004 140.614C114.83 136.914 109.303 133.613 103.71 130.59C98.1444 127.584 92.4769 124.73 86.5789 122.43C83.2197 121.121 77.444 119.159 74.1631 118.299C73.2345 118.054 73.9304 118.01 74.0167 118.016Z" fill="#1C1C1C"/>
<path d="M85.8288 91.6042C86.5789 92.8155 87.339 94.0188 87.9807 95.2943C88.0108 95.3544 88.0389 95.4146 88.0689 95.4748C87.1164 92.5769 86.2119 89.6709 85.3455 86.745C85.2914 86.5645 85.5902 86.4682 85.6584 86.6427C89.8919 97.3639 93.8206 108.215 97.631 119.095C98.6979 122.137 99.6324 125.212 100.601 128.284C100.635 128.39 100.461 128.445 100.417 128.344C99.2534 125.709 98.0822 123.092 97.0173 120.411C95.9524 117.731 94.9637 115.022 93.963 112.319C92.2142 107.592 90.5477 102.841 88.9413 98.0658C88.438 97.2295 87.9306 96.3953 87.4553 95.5449C86.7634 94.3036 86.1938 93.004 85.6163 91.7065C85.5541 91.5641 85.7506 91.4779 85.8288 91.6042Z" fill="#1C1C1C"/>
<path d="M67.9563 141.666C69.2679 139.44 70.5594 137.204 71.865 134.976C73.1445 132.792 74.4059 130.6 75.6613 128.404C76.9588 126.132 78.2203 123.81 79.7424 121.678C79.7705 121.638 79.8387 121.672 79.8186 121.718C78.9262 124.052 77.7189 126.268 76.5357 128.464C75.3104 130.741 74.0509 132.999 72.7815 135.251C71.5381 137.457 70.2526 139.637 68.949 141.809C67.6094 144.041 66.2015 146.329 64.5631 148.359C64.4969 148.439 64.3445 148.377 64.3906 148.268C65.4074 146.002 66.6969 143.804 67.9563 141.666Z" fill="#1C1C1C"/>
<path d="M55.2579 148.309C56.7419 145.383 59.0502 142.509 60.7589 139.726C60.8231 139.62 60.9815 139.73 60.9193 139.836C59.3671 142.447 57.9452 145.261 56.4612 147.916C63.2276 150.71 70.4112 153.201 77.312 155.645C84.3932 158.156 91.5207 160.534 98.7463 162.616C102.785 163.779 106.83 165.041 110.893 166.108C111.146 166.174 111.078 166.382 110.819 166.332C103.509 164.957 96.3318 162.845 89.2545 160.599C82.0368 158.308 74.9134 155.749 67.8241 153.1C63.8353 151.61 55.1376 148.546 55.2579 148.309Z" fill="#1C1C1C"/>
<path d="M66.9883 115.909C76.2916 118.291 86.9968 122.212 91.7938 124.089C91.9202 124.133 92.0345 124.177 92.1488 124.219C96.3743 125.88 98.9914 127.111 99.6191 127.216C99.6713 127.192 99.7114 127.155 99.7515 127.131V127.119C100.191 126.802 100.626 126.562 101.059 126.399C102.25 125.972 113.697 124.542 113.409 120.997C113.13 117.489 108.465 117.708 107.779 117.756C108.521 117.593 114.734 116.137 112.711 113.035C111.281 110.835 105.128 111.158 104.508 111.182C105.136 110.975 110.844 109.114 108.88 105.948C107.475 103.681 100.606 103.976 99.8137 104.111C100.455 103.866 105.543 103.014 103.169 100.284C101.52 98.383 88.5871 100.316 82.8374 103.186C74.2882 107.454 66.9883 115.909 66.9883 115.909Z" fill="white"/>
<path d="M91.794 124.089C91.9204 124.133 92.0347 124.177 92.149 124.219C94.1344 122.677 101.647 118.698 107.549 117.942C107.914 117.896 107.938 117.686 107.551 117.704C100.263 118.035 93.7112 122.326 91.794 124.089Z" fill="#1A2E35"/>
<path d="M104.227 111.417C96.0806 113.033 92.3986 114.832 85.3935 119.282C85.2952 119.344 85.1849 119.2 85.2792 119.128C91.809 114.241 95.8721 111.82 104.157 111.21C104.532 111.182 104.6 111.343 104.227 111.417Z" fill="#1A2E35"/>
<path d="M99.5629 104.279C91.7476 106.357 87.6284 108.158 81.3332 113.252C81.1848 113.372 81.0023 113.19 81.1387 113.055C87.0708 107.301 92.1968 105.021 99.4887 104.063C99.986 103.998 100.054 104.149 99.5629 104.279Z" fill="#1A2E35"/>
<path d="M60.4306 72.9375C65.0592 74.6021 74.0497 68.2588 77.9423 62.7358C78.207 62.3547 78.0707 58.0289 78.1549 52.7626C78.2171 49.5679 78.3635 46.0102 78.7305 42.7754L57.8777 45.4025C57.8777 45.4025 59.103 52.4116 58.4292 58.049C58.367 58.5203 58.2708 58.9534 58.1384 59.3606C58.1244 59.4207 58.0983 59.4929 58.0842 59.5771C57.3843 62.0519 55.9564 71.3251 60.4306 72.9375Z" fill="white" stroke="black" stroke-width="0.640852" stroke-miterlimit="10"/>
<path d="M58.0762 59.5751C58.0361 59.7095 57.996 59.8559 57.9699 60.0304C70.4539 59.5009 75.2029 54.012 78.2752 48.7456C78.3695 46.7382 78.5018 44.7026 78.7305 42.7754L57.8757 45.3985C57.8757 45.3985 59.107 52.4136 58.4252 58.049C58.371 58.5183 58.2647 58.9454 58.1304 59.3606C58.1163 59.4127 58.1043 59.4949 58.0762 59.5751Z" fill="black" stroke="black" stroke-width="0.640852" stroke-miterlimit="10"/>
<path d="M87.2774 20.9016C88.4085 28.388 81.5759 48.5288 75.8002 52.3933C67.4274 57.9946 55.2382 56.8535 50.8623 47.135C46.6207 37.7154 55.9902 11.6263 62.2994 8.27117C71.5927 3.32771 85.6069 9.84144 87.2774 20.9016Z" fill="white" stroke="black" stroke-width="1.2817" stroke-miterlimit="10"/>
<path d="M67.9954 29.9606C68.0235 29.9125 68.0796 30.0609 68.0596 30.1151C67.5642 31.4587 67.2213 33.0831 68.3002 33.9435C68.3343 33.9696 68.3062 34.0377 68.2641 34.0157C66.8342 33.3057 67.3095 31.1539 67.9954 29.9606Z" fill="black"/>
<path d="M69.6841 28.9483C71.9242 29.5119 70.6327 33.952 68.5571 33.4305C66.5135 32.9151 67.805 28.475 69.6841 28.9483Z" fill="black"/>
<path d="M59.6288 27.4425C59.6328 27.3864 59.5025 27.4766 59.4884 27.5328C59.1315 28.9206 58.4897 30.4507 57.112 30.545C57.0698 30.547 57.0518 30.6192 57.0999 30.6252C58.6822 30.8538 59.5145 28.8143 59.6288 27.4425Z" fill="black"/>
<path d="M58.8191 25.6477C56.6552 24.8355 55.1912 29.2234 57.1966 29.9735C59.168 30.7155 60.632 26.3275 58.8191 25.6477Z" fill="black"/>
<path d="M72.0268 27.4263C71.4673 27.0974 71.004 26.7023 70.4826 26.3193C69.895 25.8881 69.3836 25.6054 69.1249 24.8914C68.9865 24.5084 69.2472 23.9689 69.6062 23.7984C70.4445 23.4034 71.2948 23.7523 72.0228 24.2416C72.8129 24.7731 73.2862 25.3848 73.563 26.2952C73.8317 27.1776 72.7668 27.8595 72.0268 27.4263Z" fill="black"/>
<path d="M57.7524 22.9116C58.3982 22.9898 59.0058 22.9557 59.6496 22.9678C60.3776 22.9818 60.9571 23.068 61.5969 22.6549C61.9398 22.4343 62.0581 21.8467 61.8756 21.4938C61.4505 20.6715 60.5621 20.4329 59.6857 20.3807C58.7351 20.3246 57.9871 20.5231 57.217 21.0806C56.4689 21.6201 56.9021 22.8073 57.7524 22.9116Z" fill="black"/>
<path d="M64.813 42.7116C64.3898 42.9382 63.9326 43.2852 63.4212 43.1829C62.9318 43.0846 62.4325 42.7056 62.0434 42.4068C62.0053 42.3767 61.9472 42.4108 61.9632 42.4609C62.1657 43.0927 62.8215 43.6422 63.4914 43.7164C64.1452 43.7886 64.6104 43.3393 64.9273 42.8139C64.9714 42.7397 64.8751 42.6795 64.813 42.7116Z" fill="black"/>
<path d="M64.5676 38.1742C63.4505 39.1449 62.1289 39.4678 60.8354 39.3474C60.2578 39.2973 59.6762 39.1489 59.1287 38.9343C59.0184 38.9002 58.9121 38.8561 58.8179 38.804C58.7216 38.7618 58.6334 38.7237 58.5291 38.6696C58.3747 38.5994 58.3245 38.441 58.3426 38.2805L58.3466 38.2705C58.3626 38.2204 58.3747 38.1803 58.4008 38.1341C58.4008 38.1341 58.4008 38.1341 58.4028 38.1241L58.4409 38.0038C58.7196 36.9369 59.2912 35.3566 59.2912 35.3566C58.848 35.4368 56.6159 35.7516 56.8084 35.2062C58.4148 30.7059 60.1997 25.7003 62.7486 21.561C62.8248 21.4206 63.0454 21.5229 62.9893 21.6693C61.6175 26.0552 59.4817 30.1704 58.0338 34.5564C58.7337 34.5002 59.8888 34.3558 60.4403 34.5283C60.5787 34.6145 59.2811 37.5626 59.1949 38.0519C59.1949 38.0519 59.1889 38.072 59.1889 38.106C60.9016 38.8521 62.3996 38.7037 64.4753 38.0118C64.5996 37.9637 64.6819 38.088 64.5676 38.1742Z" fill="black"/>
<path opacity="0.2" d="M85.0796 35.0903C83.8983 34.1237 82.4063 29.1702 81.7124 27.1246C80.9924 24.9988 83.1282 16.3813 83.8261 13.8184C85.5889 15.8078 86.8303 18.2404 87.2675 20.9799C87.7689 24.0984 86.7982 29.6254 85.0796 35.0903Z" fill="black"/>
<path d="M65.3639 16.2957C66.3647 18.4536 68.3922 19.9978 70.7707 20.2826C73.087 20.5593 75.7242 19.6629 77.136 17.7437C77.1781 17.6875 77.2664 17.7517 77.2242 17.8098C75.7141 19.8594 73.3136 21.2151 70.7105 20.8401C68.2679 20.4871 66.0538 18.6802 65.2075 16.3659C65.1714 16.2616 65.3178 16.1954 65.3639 16.2957Z" fill="#1A2E35"/>
<path d="M76.9249 1.9066C80.7413 3.09584 83.6552 6.23439 84.307 9.25461C84.7041 11.0896 84.3672 12.7401 83.6372 14.3084C83.6071 14.3725 83.4747 14.3184 83.4988 14.2522C84.4674 11.7153 84.0343 8.38424 81.7701 5.76711C79.5942 3.25427 76.1969 1.69201 72.7856 1.97478C71.0048 2.12118 69.4104 2.76694 68.3856 3.8178C68.2713 3.93613 68.0086 3.76165 68.1109 3.63731C69.8456 1.5396 73.4715 0.831672 76.9249 1.9066Z" fill="#1A2E35"/>
<path d="M52.2274 3.82211C53.3766 2.10544 55.1634 0.864056 57.1448 0.306538C59.9204 -0.475592 62.5235 0.507083 65.0885 1.53388C65.1586 1.56196 65.1145 1.67025 65.0463 1.64218C62.8584 0.773811 60.5902 0.0217621 58.2157 0.485024C56.2805 0.864056 54.4535 1.89687 53.2001 3.42904C50.597 6.6097 50.7775 11.5331 53.6653 14.4731C55.2998 16.1377 57.6462 17.0802 59.9765 17.004C60.0688 17.002 60.0949 17.1424 60.0006 17.1484C55.7069 17.4011 51.6298 14.3047 50.9459 10.013C50.607 7.8952 51.0262 5.61299 52.2274 3.82211Z" fill="#1A2E35"/>
<path d="M87.3237 25.1877C87.3237 25.1877 92.9209 19.3438 90.9937 14.4986C89.9027 11.7531 84.0788 10.4275 84.0788 10.4275C84.0788 10.4275 83.1623 6.60511 78.7142 4.17249C74.22 1.7158 67.7163 2.90704 67.7163 2.90704C67.7163 2.90704 63.8918 -0.993584 58.9283 0.24178C52.0075 1.96447 50.1885 11.2518 55.3626 15.8643C58.9965 19.1031 65.7669 16.9894 65.7669 16.9894C66.2964 17.22 70.9691 22.2056 76.6446 18.3812C76.6446 18.3812 79.2376 22.4342 82.9518 21.1547C82.9497 21.1567 83.6416 24.7224 87.3237 25.1877Z" fill="black"/>
<path d="M58.145 59.1358L62.581 71.4072L78.1033 56.7593L82.1523 61.803C82.1523 61.803 66.614 85.4233 66.5639 84.3263L62.0015 73.7716L54.5732 80.7105L55.8427 62.6273L58.145 59.1358Z" fill="#EDEFEF"/>
<path d="M54.6942 71.7359C55.0051 68.7578 55.2337 65.7476 55.6809 62.7875C55.697 62.6832 55.8634 62.6411 55.8855 62.7675C56.3748 65.6734 55.1294 77.0584 55.0372 79.7958C55.0472 79.7858 55.0593 79.7758 55.0693 79.7657C55.3801 79.4649 61.942 73.6732 62.0021 73.7694C63.0149 75.456 66.364 83.1429 66.5866 83.8388C69.0433 80.0866 78.4369 66.4635 81.3107 62.9359C81.393 62.8336 81.5514 62.9259 81.4852 63.0462C79.2892 67.023 66.8494 85.377 66.6709 85.3169C66.5445 85.4071 62.3772 75.9373 61.9039 74.1605C60.7828 75.4339 54.1307 81.9998 54.1267 81.5546C54.0946 78.5564 54.3854 74.718 54.6942 71.7359Z" fill="#1C1C1C"/>
<path d="M80.3695 37.1185C80.3695 37.1185 86.1552 31.2304 88.9027 33.4024C91.6502 35.5743 86.5182 44.657 82.7419 45.383C78.9656 46.109 78.2256 42.6275 78.2256 42.6275L80.3695 37.1185Z" fill="white" stroke="black" stroke-width="1.2817" stroke-miterlimit="10"/>
<path d="M87.367 35.9674C87.4252 35.9714 87.4232 36.0536 87.369 36.0656C84.7078 36.6572 83.0072 38.7469 81.6856 40.989C82.582 40.1909 83.675 39.856 84.7639 40.9449C84.8201 41.0031 84.7419 41.0933 84.6737 41.0673C83.689 40.6782 82.9229 40.7303 82.0967 41.4322C81.5111 41.9296 81.0538 42.6054 80.5926 43.2151C80.4382 43.4177 80.0551 43.2311 80.1835 42.9885C80.1935 42.9704 80.2035 42.9524 80.2136 42.9343C80.6868 39.7477 83.9016 35.7147 87.367 35.9674Z" fill="#1A2E35"/>
</svg>
